<svg xmlns="http://www.w3.org/2000/svg" xmlns:xlink="http://www.w3.org/1999/xlink" version="1.1" x="0px" y="0px" viewBox="0 0 50 62.5" enable-background="new 0 0 50 50" xml:space="preserve"><g><path d="M38.26,11.74C34.718,8.198,30.009,6.248,25,6.248c-5.009,0-9.718,1.95-13.26,5.492C8.198,15.282,6.248,19.991,6.248,25   c0,5.01,1.951,9.719,5.492,13.26c3.542,3.543,8.251,5.492,13.26,5.492c5.009,0,9.718-1.949,13.26-5.492   c3.542-3.541,5.493-8.25,5.493-13.26C43.753,19.991,41.802,15.282,38.26,11.74z M30.977,37.293c0,0.952-0.225,1.89-0.653,2.73   c-0.429-0.841-0.653-1.779-0.653-2.73c0-0.942,0.222-1.871,0.643-2.707c0.028,0.043,0.057,0.086,0.085,0.129   C30.777,35.517,30.977,36.398,30.977,37.293z M24.979,43.135c-0.428-0.842-0.653-1.779-0.653-2.73s0.226-1.889,0.653-2.73   c0.429,0.842,0.653,1.779,0.653,2.73S25.407,42.293,24.979,43.135z M14.629,12.767c0.943,0.05,1.867,0.324,2.691,0.799   c0.782,0.451,1.451,1.072,1.957,1.81c0.019,0.04,0.039,0.08,0.059,0.119c-0.935-0.053-1.852-0.326-2.669-0.797   C15.843,14.223,15.144,13.559,14.629,12.767L14.629,12.767z M18.98,12.632c0-0.951,0.225-1.889,0.653-2.73   c0.429,0.841,0.654,1.779,0.654,2.73c0,0.943-0.222,1.873-0.643,2.708c-0.028-0.043-0.056-0.087-0.085-0.129   C19.18,14.409,18.98,13.527,18.98,12.632z M24.979,6.792c0.429,0.841,0.653,1.779,0.653,2.73s-0.225,1.889-0.653,2.73   c-0.428-0.841-0.653-1.779-0.653-2.73S24.551,7.633,24.979,6.792z M25.632,34.258c0,0.951-0.225,1.889-0.653,2.729   c-0.428-0.841-0.653-1.778-0.653-2.729s0.226-1.89,0.653-2.73C25.407,32.369,25.632,33.307,25.632,34.258z M24.325,15.669   c0-0.951,0.226-1.889,0.653-2.73c0.429,0.842,0.653,1.779,0.653,2.73s-0.225,1.889-0.653,2.73   C24.551,17.558,24.325,16.62,24.325,15.669z M24.305,30.98c-0.812-0.096-1.601-0.355-2.314-0.768   c-0.788-0.455-1.462-1.083-1.97-1.83c-0.016-0.033-0.032-0.066-0.048-0.1c0.936,0.053,1.854,0.326,2.671,0.798   c0.804,0.464,1.488,1.107,1.999,1.874C24.53,30.961,24.417,30.969,24.305,30.98z M35.181,24.817   c-0.884-0.072-1.748-0.34-2.522-0.788s-1.439-1.061-1.943-1.791c-0.022-0.046-0.046-0.092-0.069-0.138   c0.934,0.053,1.85,0.326,2.666,0.797c0.816,0.471,1.511,1.128,2.024,1.911C35.284,24.811,35.232,24.813,35.181,24.817z    M22.807,21.202c0.547-0.315,1.042-0.71,1.469-1.167c-0.183,0.598-0.277,1.224-0.277,1.855s0.095,1.257,0.277,1.855   c-0.427-0.457-0.922-0.852-1.469-1.167c-0.546-0.316-1.135-0.547-1.744-0.688C21.672,21.749,22.261,21.518,22.807,21.202z    M19.953,21.718c0.514-0.792,1.214-1.456,2.038-1.931c0.824-0.476,1.748-0.75,2.691-0.799c-0.515,0.792-1.214,1.456-2.038,1.931   C21.82,21.395,20.896,21.668,19.953,21.718z M27.193,21.202c0.54,0.312,1.121,0.542,1.723,0.683   c-0.616,0.141-1.213,0.374-1.766,0.692c-0.547,0.316-1.042,0.71-1.469,1.167c0.183-0.598,0.277-1.224,0.277-1.855   c0-0.657-0.103-1.307-0.3-1.927C26.101,20.45,26.618,20.87,27.193,21.202z M25.318,18.988c0.943,0.05,1.867,0.324,2.691,0.799   c0.774,0.447,1.439,1.061,1.943,1.791c0.022,0.046,0.046,0.092,0.069,0.138c-0.934-0.053-1.85-0.326-2.666-0.797   C26.532,20.443,25.833,19.779,25.318,18.988z M25.632,28.037c0,0.951-0.225,1.889-0.653,2.729c-0.428-0.841-0.653-1.778-0.653-2.73   c0-0.951,0.226-1.889,0.653-2.73C25.407,26.147,25.632,27.086,25.632,28.037z M24.325,21.89c0-0.951,0.226-1.889,0.653-2.73   c0.429,0.841,0.653,1.779,0.653,2.73s-0.225,1.889-0.653,2.73C24.551,23.778,24.325,22.841,24.325,21.89z M21.827,24.275   c0.547,0.315,1.136,0.546,1.745,0.688c-0.609,0.141-1.198,0.373-1.745,0.688c-0.554,0.319-1.053,0.72-1.483,1.183   c0.179-0.592,0.271-1.21,0.271-1.834c0-0.664-0.105-1.322-0.307-1.948C20.746,23.533,21.258,23.947,21.827,24.275z M19.953,22.061   c0.943,0.05,1.868,0.324,2.691,0.799c0.824,0.476,1.523,1.14,2.038,1.931c-0.943-0.05-1.867-0.324-2.691-0.799   C21.167,23.517,20.467,22.853,19.953,22.061z M21.99,25.934c0.824-0.476,1.748-0.75,2.691-0.799   c-0.515,0.792-1.214,1.455-2.038,1.931c-0.823,0.476-1.748,0.749-2.691,0.8C20.467,27.073,21.167,26.409,21.99,25.934z    M28.131,25.651c-0.547-0.315-1.136-0.547-1.745-0.688c0.608-0.141,1.198-0.372,1.744-0.688c0.598-0.345,1.133-0.784,1.586-1.296   c-0.218,0.648-0.33,1.331-0.33,2.021c0,0.649,0.101,1.293,0.293,1.906C29.234,26.412,28.712,25.987,28.131,25.651z M30.005,27.865   c-0.942-0.051-1.867-0.324-2.691-0.8s-1.523-1.14-2.038-1.931c0.943,0.05,1.868,0.323,2.691,0.799   C28.791,26.409,29.49,27.073,30.005,27.865z M25.275,24.792C25.79,24,26.49,23.336,27.313,22.86   c0.824-0.476,1.748-0.75,2.691-0.799c-0.515,0.792-1.214,1.456-2.038,1.931S26.219,24.742,25.275,24.792z M18.98,25   c0-0.951,0.225-1.889,0.653-2.73c0.429,0.841,0.654,1.779,0.654,2.73c0,0.942-0.221,1.871-0.642,2.705   c-0.031-0.049-0.063-0.098-0.096-0.146C19.177,26.763,18.98,25.887,18.98,25z M18.899,26.748c-0.419-0.443-0.903-0.826-1.437-1.134   c-0.521-0.3-1.08-0.524-1.658-0.667c0.586-0.143,1.153-0.368,1.68-0.672c0.541-0.312,1.03-0.701,1.454-1.151   c-0.187,0.604-0.284,1.237-0.284,1.876C18.654,25.594,18.738,26.183,18.899,26.748z M22.807,27.349   c0.547-0.315,1.042-0.71,1.469-1.167c-0.183,0.598-0.277,1.224-0.277,1.854c0,0.672,0.107,1.337,0.313,1.97   c-0.435-0.475-0.942-0.883-1.504-1.207c-0.598-0.346-1.245-0.59-1.915-0.725C21.563,27.938,22.21,27.693,22.807,27.349z    M25.959,28.037c0-0.632-0.095-1.258-0.277-1.855c0.427,0.457,0.922,0.852,1.469,1.167c0.604,0.349,1.259,0.595,1.937,0.729   c-0.662,0.137-1.303,0.379-1.894,0.721c-0.592,0.341-1.122,0.774-1.571,1.279C25.844,29.424,25.959,28.734,25.959,28.037z    M30.337,27.67c-0.409-0.825-0.624-1.741-0.624-2.67c0-0.944,0.222-1.874,0.644-2.71c0.024,0.037,0.049,0.074,0.073,0.111   c0.387,0.807,0.59,1.697,0.59,2.6c0,0.831-0.172,1.652-0.501,2.407C30.455,27.494,30.396,27.582,30.337,27.67z M31.089,23.209   c0.412,0.43,0.886,0.802,1.406,1.103c0.521,0.3,1.079,0.524,1.658,0.667c-0.586,0.142-1.152,0.368-1.68,0.672   c-0.502,0.29-0.96,0.646-1.361,1.056c0.154-0.553,0.233-1.127,0.233-1.707C31.346,24.392,31.258,23.788,31.089,23.209z    M28.173,19.504c-0.547-0.315-1.136-0.546-1.745-0.688c0.609-0.141,1.198-0.373,1.745-0.688c0.521-0.301,0.994-0.673,1.406-1.103   c-0.169,0.579-0.257,1.182-0.258,1.791c0,0.608,0.089,1.212,0.258,1.791C29.167,20.177,28.693,19.805,28.173,19.504z    M21.827,19.504c-0.541,0.312-1.03,0.701-1.454,1.151c0.187-0.604,0.283-1.237,0.283-1.876c0-0.601-0.086-1.197-0.251-1.77   c0.416,0.437,0.895,0.814,1.422,1.119c0.547,0.315,1.136,0.547,1.745,0.688C22.963,18.958,22.374,19.188,21.827,19.504z    M17.32,23.992c-0.781,0.451-1.653,0.72-2.545,0.79c-0.044-0.003-0.089-0.006-0.133-0.009c0.513-0.783,1.208-1.441,2.025-1.913   c0.824-0.476,1.749-0.75,2.691-0.799C18.844,22.853,18.145,23.517,17.32,23.992z M14.777,25.109   c0.884,0.072,1.748,0.341,2.522,0.788c0.788,0.455,1.462,1.083,1.97,1.83c0.016,0.033,0.032,0.066,0.048,0.1   c-0.936-0.053-1.854-0.325-2.672-0.797c-0.816-0.473-1.511-1.128-2.024-1.911C14.673,25.116,14.725,25.113,14.777,25.109z    M23.401,31.142c-0.564,0.144-1.109,0.362-1.617,0.656c-0.521,0.3-0.994,0.673-1.406,1.103c0.169-0.578,0.257-1.182,0.258-1.791   c0-0.594-0.084-1.182-0.246-1.748c0.419,0.443,0.904,0.826,1.437,1.135C22.322,30.782,22.853,30.998,23.401,31.142z M25.354,30.959   c0.511-0.768,1.196-1.413,2.002-1.878c0.805-0.464,1.705-0.735,2.625-0.794c-0.049,0.095-0.095,0.191-0.138,0.289   c-0.489,0.662-1.114,1.221-1.834,1.637c-0.727,0.42-1.531,0.682-2.358,0.771C25.553,30.975,25.454,30.965,25.354,30.959z    M28.173,30.496c0.502-0.289,0.96-0.646,1.361-1.057c-0.153,0.553-0.233,1.128-0.233,1.707c0,0.602,0.086,1.197,0.251,1.77   c-0.416-0.436-0.895-0.814-1.421-1.118c-0.496-0.286-1.026-0.503-1.574-0.646C27.12,31.01,27.665,30.789,28.173,30.496z    M30.803,27.571c0.489-0.663,1.114-1.222,1.834-1.638c0.781-0.451,1.654-0.72,2.546-0.789c0.045,0.003,0.089,0.006,0.133,0.008   c-0.513,0.783-1.208,1.441-2.025,1.914c-0.805,0.464-1.705,0.735-2.625,0.794C30.714,27.766,30.76,27.669,30.803,27.571z    M33.475,22.614c-0.591-0.341-1.231-0.583-1.894-0.72c0.678-0.135,1.333-0.38,1.937-0.729c0.547-0.316,1.041-0.71,1.469-1.167   c-0.183,0.598-0.277,1.224-0.277,1.855c0,0.697,0.115,1.388,0.337,2.042C34.597,23.389,34.066,22.956,33.475,22.614z    M33.354,20.882c-0.824,0.476-1.749,0.75-2.691,0.799c0.515-0.792,1.214-1.456,2.038-1.931c0.823-0.476,1.748-0.75,2.69-0.799   C34.878,19.742,34.178,20.406,33.354,20.882z M30.312,21.526c-0.024-0.037-0.049-0.074-0.073-0.11   c-0.387-0.807-0.59-1.697-0.59-2.6c0-0.903,0.203-1.793,0.59-2.6c0.024-0.037,0.049-0.074,0.073-0.111   c0.422,0.836,0.644,1.767,0.644,2.71S30.733,20.69,30.312,21.526z M29.953,16.055c-0.504,0.73-1.169,1.344-1.943,1.791   c-0.824,0.476-1.748,0.749-2.691,0.799c0.515-0.792,1.214-1.456,2.038-1.931c0.816-0.471,1.732-0.744,2.666-0.797   C29.999,15.962,29.976,16.008,29.953,16.055z M21.99,17.846c-0.781-0.452-1.451-1.072-1.957-1.811   c-0.02-0.04-0.039-0.08-0.059-0.119c0.935,0.053,1.852,0.326,2.669,0.798c0.824,0.475,1.523,1.139,2.038,1.931   C23.738,18.595,22.814,18.321,21.99,17.846z M19.666,16.071c0.028,0.043,0.056,0.087,0.085,0.13   c0.379,0.801,0.579,1.684,0.579,2.578c0,0.951-0.225,1.889-0.653,2.73c-0.428-0.841-0.653-1.779-0.654-2.73   C19.023,17.836,19.245,16.907,19.666,16.071z M16.439,21.165c0.582,0.336,1.211,0.576,1.862,0.713   c-0.628,0.14-1.235,0.375-1.797,0.7c-0.598,0.345-1.133,0.783-1.585,1.295c0.217-0.648,0.329-1.331,0.329-2.021   c0-0.631-0.094-1.257-0.277-1.855C15.398,20.455,15.893,20.849,16.439,21.165z M14.565,18.951c0.942,0.05,1.867,0.324,2.691,0.799   s1.523,1.14,2.038,1.931c-0.943-0.05-1.867-0.324-2.691-0.799S15.08,19.742,14.565,18.951z M13.615,21.853   c0-0.951,0.225-1.889,0.653-2.73c0.428,0.841,0.653,1.779,0.653,2.73s-0.225,1.889-0.653,2.73   C13.84,23.741,13.615,22.804,13.615,21.853z M16.482,27.312c0.591,0.341,1.231,0.583,1.894,0.72   c-0.677,0.136-1.333,0.381-1.937,0.73c-0.546,0.314-1.041,0.71-1.468,1.167c0.183-0.599,0.277-1.224,0.277-1.855   c0-0.697-0.115-1.388-0.337-2.042C15.361,26.537,15.891,26.971,16.482,27.312z M16.603,29.044c0.824-0.476,1.749-0.749,2.691-0.799   c-0.515,0.792-1.214,1.456-2.038,1.931c-0.824,0.476-1.749,0.75-2.691,0.799C15.08,30.184,15.779,29.52,16.603,29.044z    M19.644,28.404c0.031,0.049,0.063,0.099,0.096,0.146c0.374,0.797,0.57,1.672,0.569,2.559c0,0.902-0.203,1.793-0.589,2.6   c-0.025,0.037-0.05,0.074-0.074,0.111c-0.422-0.836-0.644-1.767-0.644-2.711C19.002,30.168,19.223,29.239,19.644,28.404z    M20.004,33.871c0.504-0.729,1.169-1.344,1.943-1.791c0.727-0.419,1.532-0.682,2.358-0.771c0.099,0.011,0.198,0.02,0.297,0.025   c-0.511,0.769-1.196,1.414-2.002,1.879c-0.816,0.471-1.732,0.744-2.666,0.797C19.958,33.964,19.981,33.918,20.004,33.871z    M25.652,31.313c0.812,0.095,1.601,0.354,2.314,0.767c0.782,0.451,1.451,1.072,1.957,1.811c0.02,0.041,0.039,0.08,0.059,0.119   c-0.935-0.053-1.852-0.325-2.669-0.797c-0.804-0.465-1.488-1.107-1.999-1.874C25.428,31.333,25.54,31.325,25.652,31.313z    M30.291,33.855c-0.027-0.045-0.056-0.088-0.085-0.131c-0.38-0.801-0.579-1.684-0.579-2.578c0-0.83,0.172-1.652,0.501-2.406   c0.063-0.086,0.123-0.174,0.182-0.264c0.409,0.826,0.624,1.741,0.624,2.67C30.935,32.09,30.713,33.02,30.291,33.855z    M33.518,28.762c-0.581-0.336-1.211-0.576-1.861-0.714c0.628-0.14,1.235-0.374,1.798-0.699c0.597-0.345,1.132-0.784,1.584-1.296   c-0.217,0.648-0.329,1.331-0.329,2.021c0,0.632,0.095,1.257,0.277,1.855C34.559,29.472,34.064,29.077,33.518,28.762z    M35.393,30.975c-0.943-0.049-1.868-0.323-2.691-0.799c-0.824-0.475-1.523-1.139-2.038-1.931c0.943,0.05,1.868,0.323,2.691,0.8   C34.178,29.52,34.878,30.184,35.393,30.975z M36.343,28.074c0,0.95-0.226,1.889-0.653,2.729c-0.429-0.841-0.653-1.779-0.653-2.73   s0.225-1.889,0.653-2.73C36.117,26.185,36.343,27.123,36.343,28.074z M35.689,24.583c-0.429-0.841-0.653-1.779-0.653-2.73   c0-0.952,0.225-1.889,0.653-2.73c0.429,0.841,0.653,1.779,0.653,2.73S36.117,23.742,35.689,24.583z M32.538,19.467   c-0.582,0.335-1.104,0.761-1.549,1.255c0.192-0.614,0.293-1.257,0.293-1.906c0-0.69-0.112-1.373-0.329-2.021   c0.452,0.512,0.987,0.951,1.584,1.295c0.547,0.316,1.137,0.547,1.746,0.688C33.674,18.92,33.084,19.151,32.538,19.467z    M32.701,17.809c-0.824-0.476-1.523-1.14-2.038-1.931c0.943,0.05,1.867,0.324,2.691,0.799c0.823,0.476,1.523,1.139,2.038,1.931   C34.449,18.558,33.524,18.284,32.701,17.809z M27.15,14.981c0.604,0.349,1.259,0.594,1.937,0.729   c-0.662,0.137-1.303,0.379-1.894,0.72c-0.592,0.341-1.122,0.775-1.571,1.28c0.222-0.654,0.337-1.345,0.337-2.042   c0-0.631-0.095-1.257-0.277-1.855C26.108,14.271,26.604,14.665,27.15,14.981z M25.275,12.767c0.943,0.05,1.868,0.324,2.691,0.799   c0.824,0.476,1.523,1.139,2.038,1.931c-0.942-0.05-1.867-0.324-2.691-0.799S25.79,13.559,25.275,12.767z M24.312,17.638   c-0.435-0.474-0.942-0.882-1.504-1.207c-0.598-0.345-1.245-0.589-1.915-0.725c0.67-0.136,1.317-0.38,1.914-0.725   c0.547-0.315,1.042-0.71,1.469-1.167c-0.183,0.598-0.277,1.224-0.277,1.855C23.998,16.34,24.105,17.005,24.312,17.638z    M22.644,14.698c-0.823,0.476-1.748,0.75-2.691,0.799c0.515-0.792,1.214-1.455,2.038-1.931c0.824-0.476,1.748-0.75,2.691-0.799   C24.167,13.559,23.468,14.223,22.644,14.698z M17.42,18.091c0.604-0.349,1.144-0.793,1.6-1.313c-0.212,0.642-0.323,1.318-0.323,2   s0.111,1.358,0.323,2c-0.456-0.52-0.996-0.964-1.6-1.313c-0.547-0.316-1.136-0.547-1.746-0.688   C16.284,18.638,16.873,18.407,17.42,18.091z M14.565,18.607c0.514-0.792,1.214-1.455,2.038-1.931s1.749-0.75,2.691-0.799   c-0.514,0.792-1.214,1.456-2.038,1.931S15.508,18.558,14.565,18.607z M13.571,23.729c-0.423-0.45-0.913-0.839-1.454-1.151   c-0.575-0.332-1.197-0.57-1.84-0.709c0.636-0.139,1.25-0.375,1.819-0.704c0.546-0.316,1.041-0.71,1.468-1.167   c-0.182,0.598-0.277,1.224-0.276,1.855C13.288,22.491,13.385,23.124,13.571,23.729z M14.268,25.343   c0.428,0.841,0.653,1.779,0.653,2.73c0,0.952-0.225,1.89-0.653,2.73c-0.428-0.841-0.654-1.779-0.654-2.73   C13.615,27.122,13.84,26.185,14.268,25.343z M17.419,30.459c0.582-0.336,1.104-0.762,1.549-1.256   c-0.193,0.613-0.293,1.258-0.293,1.906c0,0.689,0.112,1.373,0.33,2.021c-0.453-0.512-0.988-0.95-1.585-1.296   c-0.547-0.314-1.136-0.546-1.746-0.688C16.284,31.006,16.873,30.774,17.419,30.459z M17.256,32.117   c0.824,0.477,1.523,1.14,2.038,1.932c-0.943-0.051-1.867-0.324-2.691-0.799c-0.824-0.477-1.523-1.141-2.038-1.932   C15.508,31.368,16.433,31.643,17.256,32.117z M22.807,34.945c-0.604-0.35-1.259-0.594-1.937-0.729   c0.662-0.137,1.303-0.379,1.895-0.72c0.591-0.342,1.121-0.775,1.57-1.281c-0.222,0.654-0.337,1.346-0.337,2.043   c0,0.631,0.095,1.256,0.277,1.854C23.849,35.655,23.354,35.261,22.807,34.945z M24.682,37.159c-0.943-0.05-1.868-0.323-2.691-0.8   c-0.824-0.475-1.523-1.139-2.038-1.931c0.942,0.05,1.868,0.323,2.691,0.8C23.468,35.703,24.167,36.367,24.682,37.159z    M25.646,32.288c0.436,0.474,0.942,0.883,1.505,1.208c0.597,0.344,1.244,0.588,1.914,0.725c-0.67,0.136-1.317,0.379-1.914,0.725   c-0.547,0.315-1.042,0.71-1.469,1.168c0.183-0.6,0.277-1.225,0.277-1.855C25.959,33.586,25.852,32.921,25.646,32.288z    M27.313,35.229c0.824-0.477,1.748-0.75,2.691-0.8c-0.515,0.792-1.214,1.456-2.038,1.931c-0.823,0.477-1.748,0.75-2.69,0.8   C25.79,36.367,26.49,35.703,27.313,35.229z M32.537,31.834c-0.604,0.35-1.144,0.795-1.6,1.313c0.213-0.642,0.323-1.317,0.323-2.001   c0-0.682-0.11-1.357-0.323-2c0.456,0.52,0.996,0.964,1.6,1.313c0.547,0.315,1.136,0.547,1.745,0.688   C33.674,31.288,33.084,31.52,32.537,31.834z M35.393,31.318c-0.515,0.791-1.215,1.455-2.038,1.932   c-0.824,0.475-1.749,0.749-2.691,0.799c0.515-0.791,1.214-1.455,2.038-1.932C33.525,31.643,34.449,31.368,35.393,31.318z    M36.386,26.197c0.424,0.45,0.913,0.84,1.454,1.151c0.575,0.332,1.196,0.569,1.84,0.708c-0.636,0.141-1.25,0.377-1.818,0.705   c-0.547,0.315-1.042,0.71-1.469,1.167c0.183-0.599,0.276-1.224,0.276-1.854C36.669,27.435,36.572,26.802,36.386,26.197z    M38.024,29.045c0.823-0.477,1.748-0.75,2.69-0.8c-0.514,0.792-1.214,1.455-2.037,1.931s-1.748,0.75-2.691,0.799   C36.501,30.184,37.2,29.52,38.024,29.045z M38.003,27.065c-0.816-0.472-1.511-1.128-2.024-1.91   c0.052-0.002,0.104-0.005,0.155-0.009c0.884,0.072,1.748,0.341,2.522,0.788c0.824,0.477,1.523,1.14,2.038,1.932   C39.751,27.814,38.826,27.541,38.003,27.065z M35.999,24.81c0.513-0.784,1.208-1.441,2.025-1.913   c0.823-0.476,1.748-0.75,2.69-0.799c-0.514,0.792-1.213,1.456-2.037,1.931c-0.781,0.451-1.653,0.72-2.546,0.79   C36.087,24.815,36.043,24.813,35.999,24.81z M37.861,22.614c-0.563,0.325-1.069,0.733-1.505,1.208   c0.206-0.633,0.313-1.298,0.313-1.969c0-0.631-0.095-1.257-0.277-1.855c0.427,0.457,0.922,0.852,1.468,1.167   c0.598,0.345,1.245,0.588,1.915,0.725C39.105,22.025,38.458,22.27,37.861,22.614z M38.024,20.882   c-0.824-0.476-1.523-1.14-2.038-1.931c0.943,0.05,1.868,0.324,2.691,0.799s1.523,1.139,2.038,1.931   C39.772,21.631,38.848,21.357,38.024,20.882z M33.518,16.394c-0.553-0.32-1.149-0.552-1.767-0.693   c0.602-0.142,1.184-0.371,1.724-0.683c0.575-0.332,1.093-0.752,1.534-1.24c-0.197,0.62-0.3,1.271-0.3,1.927   c0,0.631,0.095,1.257,0.277,1.855C34.559,17.104,34.064,16.709,33.518,16.394z M28.131,13.283   c-0.547-0.315-1.136-0.546-1.746-0.688c0.609-0.141,1.198-0.372,1.745-0.688c0.598-0.345,1.133-0.784,1.586-1.296   c-0.218,0.648-0.33,1.331-0.33,2.021c0,0.649,0.101,1.292,0.293,1.907C29.234,14.044,28.712,13.619,28.131,13.283z M21.827,13.283   c-0.554,0.319-1.053,0.72-1.483,1.184c0.179-0.592,0.271-1.21,0.271-1.834c0-0.664-0.105-1.322-0.307-1.948   c0.438,0.48,0.95,0.895,1.52,1.223c0.547,0.315,1.136,0.546,1.745,0.688C22.963,12.737,22.374,12.968,21.827,13.283z    M16.439,16.394c-0.546,0.316-1.041,0.71-1.468,1.167c0.183-0.598,0.277-1.224,0.277-1.855c0-0.69-0.112-1.373-0.33-2.021   c0.453,0.512,0.988,0.951,1.585,1.296c0.563,0.325,1.17,0.56,1.798,0.699C17.65,15.818,17.021,16.058,16.439,16.394z    M11.933,20.882c-0.824,0.476-1.749,0.75-2.691,0.799c0.514-0.792,1.214-1.456,2.038-1.931s1.749-0.75,2.691-0.799   C13.456,19.743,12.757,20.406,11.933,20.882z M11.955,22.86c0.816,0.472,1.511,1.128,2.024,1.911   c-0.052,0.002-0.104,0.005-0.155,0.009c-0.884-0.072-1.748-0.34-2.523-0.788c-0.824-0.476-1.523-1.14-2.038-1.931   C10.206,22.111,11.131,22.385,11.955,22.86z M13.958,25.116c-0.513,0.783-1.208,1.44-2.025,1.913   c-0.824,0.475-1.749,0.748-2.691,0.799c0.515-0.792,1.214-1.455,2.038-1.931c0.781-0.451,1.654-0.721,2.546-0.79   C13.87,25.111,13.914,25.114,13.958,25.116z M12.097,27.312c0.562-0.325,1.069-0.733,1.504-1.207   c-0.206,0.632-0.313,1.298-0.313,1.969c0,0.632,0.095,1.257,0.277,1.855c-0.427-0.457-0.921-0.852-1.468-1.167   c-0.598-0.346-1.245-0.59-1.915-0.725C10.852,27.9,11.499,27.656,12.097,27.312z M11.933,29.045   c0.824,0.475,1.523,1.139,2.038,1.93c-0.943-0.049-1.867-0.322-2.691-0.799c-0.823-0.475-1.523-1.139-2.038-1.931   C10.185,28.295,11.109,28.568,11.933,29.045z M16.439,33.532c0.553,0.319,1.15,0.552,1.767,0.692   c-0.602,0.142-1.184,0.371-1.724,0.684c-0.575,0.332-1.092,0.752-1.534,1.239c0.197-0.62,0.3-1.271,0.3-1.927   c0-0.632-0.094-1.258-0.277-1.855C15.398,32.822,15.893,33.217,16.439,33.532z M21.827,36.643c0.546,0.316,1.136,0.547,1.745,0.688   c-0.609,0.142-1.198,0.373-1.745,0.688c-0.598,0.345-1.133,0.784-1.585,1.296c0.217-0.648,0.33-1.331,0.33-2.021   c0-0.648-0.1-1.292-0.293-1.906C20.723,35.882,21.245,36.307,21.827,36.643z M28.13,36.643c0.554-0.319,1.053-0.72,1.483-1.184   c-0.178,0.592-0.271,1.211-0.271,1.834c0,0.664,0.105,1.322,0.307,1.949c-0.438-0.481-0.95-0.896-1.519-1.224   c-0.547-0.315-1.137-0.547-1.746-0.688C26.994,37.189,27.584,36.959,28.13,36.643z M33.518,33.533   c0.547-0.316,1.041-0.711,1.469-1.168c-0.183,0.598-0.277,1.224-0.277,1.855c0,0.689,0.112,1.372,0.33,2.02   c-0.453-0.512-0.988-0.95-1.585-1.295c-0.563-0.324-1.17-0.56-1.798-0.699C32.307,34.107,32.937,33.868,33.518,33.533z    M38.841,30.459c0.547-0.316,1.041-0.711,1.469-1.168c-0.183,0.599-0.277,1.225-0.277,1.855c0,0.632,0.095,1.258,0.277,1.855   c-0.428-0.457-0.922-0.852-1.469-1.168c-0.547-0.314-1.136-0.546-1.745-0.688C37.705,31.006,38.294,30.774,38.841,30.459z    M38.819,25.651c-0.521-0.301-1.079-0.524-1.658-0.667c0.587-0.143,1.153-0.368,1.68-0.672c0.54-0.312,1.029-0.7,1.452-1.149   c-0.172,0.582-0.261,1.188-0.261,1.8c0,0.644,0.099,1.282,0.288,1.892C39.887,26.382,39.381,25.975,38.819,25.651z M38.841,19.467   c-0.547-0.315-1.136-0.546-1.745-0.688c0.609-0.141,1.198-0.372,1.745-0.688c0.569-0.328,1.081-0.743,1.52-1.223   c-0.202,0.626-0.307,1.284-0.307,1.948c0,0.624,0.092,1.242,0.271,1.834C39.894,20.187,39.395,19.786,38.841,19.467z    M38.678,17.809c-0.824,0.476-1.749,0.749-2.691,0.799c0.515-0.792,1.214-1.455,2.038-1.931c0.823-0.476,1.748-0.75,2.69-0.799   C40.201,16.669,39.501,17.333,38.678,17.809z M35.689,18.436c-0.429-0.841-0.653-1.779-0.653-2.73c0-0.951,0.225-1.889,0.653-2.73   c0.428,0.841,0.653,1.779,0.653,2.73C36.343,16.657,36.117,17.595,35.689,18.436z M33.312,14.735   c-0.816,0.472-1.732,0.745-2.666,0.798c0.023-0.046,0.047-0.092,0.069-0.139c0.504-0.73,1.169-1.343,1.943-1.791   c0.824-0.476,1.748-0.749,2.691-0.799C34.835,13.596,34.135,14.26,33.312,14.735z M30.43,15.232   c-0.024,0.037-0.049,0.073-0.073,0.11c-0.422-0.836-0.644-1.767-0.644-2.71c0-0.951,0.225-1.889,0.653-2.73   c0.428,0.841,0.653,1.779,0.653,2.73C31.02,13.535,30.816,14.425,30.43,15.232z M27.967,11.625   c-0.824,0.476-1.748,0.75-2.691,0.799c0.515-0.792,1.215-1.456,2.038-1.931c0.824-0.476,1.748-0.75,2.691-0.799   C29.49,10.485,28.791,11.149,27.967,11.625z M21.99,11.625c-0.823-0.476-1.523-1.139-2.038-1.931   c0.943,0.05,1.868,0.323,2.691,0.799c0.824,0.476,1.523,1.14,2.038,1.931C23.738,12.374,22.814,12.1,21.99,11.625z M14.268,12.976   c0.428,0.841,0.653,1.779,0.653,2.73s-0.225,1.889-0.653,2.73c-0.428-0.841-0.654-1.779-0.654-2.73   C13.614,14.755,13.84,13.817,14.268,12.976z M11.116,18.091c0.547,0.316,1.136,0.547,1.745,0.688   c-0.609,0.141-1.198,0.372-1.745,0.688c-0.546,0.315-1.041,0.71-1.468,1.167c0.183-0.599,0.277-1.224,0.277-1.855   s-0.094-1.257-0.277-1.855C10.075,17.381,10.569,17.776,11.116,18.091z M9.242,15.877c0.943,0.05,1.868,0.324,2.691,0.799   s1.523,1.139,2.038,1.931c-0.943-0.049-1.867-0.323-2.691-0.799S9.756,16.669,9.242,15.877z M11.138,24.275   c0.521,0.3,1.08,0.524,1.658,0.667c-0.586,0.142-1.152,0.368-1.68,0.672c-0.54,0.312-1.029,0.7-1.452,1.15   c0.171-0.582,0.26-1.188,0.26-1.801c0-0.644-0.099-1.282-0.288-1.891C10.071,23.544,10.577,23.951,11.138,24.275z M11.116,30.459   c0.547,0.315,1.136,0.547,1.745,0.688c-0.609,0.142-1.198,0.373-1.745,0.688c-0.569,0.329-1.081,0.743-1.519,1.225   c0.202-0.627,0.307-1.285,0.307-1.949c0-0.623-0.092-1.242-0.271-1.834C10.064,29.74,10.563,30.14,11.116,30.459z M11.28,32.117   c0.824-0.475,1.748-0.749,2.691-0.799c-0.515,0.791-1.214,1.455-2.038,1.932c-0.824,0.475-1.749,0.749-2.691,0.799   C9.756,33.258,10.456,32.594,11.28,32.117z M14.268,31.49c0.428,0.842,0.653,1.779,0.653,2.73s-0.225,1.889-0.653,2.73   c-0.428-0.842-0.653-1.779-0.653-2.73S13.84,32.332,14.268,31.49z M16.646,35.191c0.816-0.472,1.732-0.744,2.667-0.798   c-0.023,0.046-0.047,0.092-0.069,0.139c-0.504,0.729-1.169,1.343-1.943,1.79c-0.824,0.477-1.749,0.75-2.691,0.8   C15.123,36.33,15.822,35.666,16.646,35.191z M19.527,34.693c0.025-0.036,0.049-0.072,0.074-0.109   c0.422,0.836,0.644,1.766,0.644,2.709c0,0.951-0.225,1.89-0.653,2.73c-0.428-0.841-0.653-1.779-0.653-2.73   C18.938,36.391,19.141,35.501,19.527,34.693z M21.99,38.301c0.824-0.475,1.749-0.749,2.691-0.799   c-0.515,0.792-1.214,1.455-2.038,1.932c-0.823,0.475-1.748,0.749-2.691,0.799C20.467,39.441,21.167,38.777,21.99,38.301z    M27.967,38.301c0.824,0.477,1.523,1.141,2.038,1.932c-0.943-0.05-1.867-0.324-2.691-0.799c-0.823-0.477-1.523-1.14-2.037-1.932   C26.219,37.553,27.144,37.826,27.967,38.301z M30.621,34.43c0.936,0.054,1.852,0.326,2.669,0.799   c0.824,0.475,1.523,1.139,2.038,1.931c-0.942-0.05-1.867-0.323-2.691-0.8c-0.781-0.451-1.45-1.071-1.957-1.811   C30.661,34.51,30.642,34.47,30.621,34.43z M35.689,36.95c-0.429-0.841-0.653-1.779-0.653-2.729c0-0.952,0.225-1.89,0.653-2.73   c0.429,0.842,0.653,1.779,0.653,2.73S36.117,36.109,35.689,36.95z M38.678,32.117c0.823,0.477,1.523,1.14,2.038,1.932   c-0.943-0.05-1.868-0.324-2.691-0.799c-0.824-0.477-1.523-1.141-2.038-1.932C36.93,31.368,37.854,31.643,38.678,32.117z    M41.013,33.877c-0.429-0.842-0.653-1.779-0.653-2.73s0.225-1.889,0.653-2.73c0.428,0.842,0.653,1.779,0.653,2.73   S41.441,33.035,41.013,33.877z M41.013,27.693c-0.429-0.842-0.653-1.779-0.653-2.73c0-0.942,0.221-1.871,0.642-2.706   c0.004-0.007,0.009-0.014,0.014-0.021c0.427,0.84,0.651,1.777,0.651,2.727C41.666,25.914,41.44,26.852,41.013,27.693z    M41.034,21.546c-0.429-0.841-0.653-1.779-0.653-2.73c0-0.952,0.225-1.889,0.653-2.73c0.428,0.841,0.653,1.779,0.653,2.73   C41.688,19.767,41.462,20.705,41.034,21.546z M40.716,15.534c-0.943-0.05-1.868-0.324-2.691-0.799   c-0.824-0.476-1.523-1.14-2.038-1.931c0.942,0.05,1.867,0.323,2.691,0.799C39.501,14.079,40.201,14.743,40.716,15.534z    M37.86,15.018c0.547,0.315,1.136,0.546,1.745,0.688c-0.609,0.141-1.198,0.372-1.745,0.688c-0.546,0.316-1.041,0.71-1.468,1.167   c0.183-0.598,0.276-1.224,0.277-1.855c-0.001-0.631-0.095-1.257-0.277-1.855C36.819,14.308,37.314,14.702,37.86,15.018z    M32.495,13.32c-0.521,0.301-0.994,0.673-1.406,1.103c0.169-0.579,0.257-1.182,0.257-1.791c0-0.623-0.091-1.241-0.269-1.832   c0.417,0.439,0.898,0.82,1.429,1.126c0.558,0.322,1.159,0.556,1.782,0.696C33.661,12.762,33.056,12.997,32.495,13.32z    M32.669,11.643c-0.815-0.471-1.51-1.126-2.022-1.908c-0.004-0.008-0.008-0.015-0.012-0.023c0.941,0.05,1.865,0.324,2.688,0.799   c0.824,0.476,1.523,1.14,2.038,1.931C34.417,12.393,33.492,12.119,32.669,11.643z M27.15,10.21   c-0.547,0.315-1.042,0.71-1.469,1.167c0.183-0.599,0.277-1.224,0.277-1.855c0-0.657-0.103-1.307-0.3-1.927   c0.441,0.488,0.959,0.907,1.534,1.239c0.54,0.312,1.121,0.542,1.723,0.684C28.3,9.658,27.703,9.891,27.15,10.21z M27.356,8.551   c-0.824-0.476-1.523-1.14-2.038-1.931c0.943,0.05,1.867,0.324,2.691,0.799c0.823,0.476,1.523,1.14,2.038,1.931   C29.104,9.301,28.18,9.027,27.356,8.551z M22.807,8.834c0.547-0.316,1.042-0.71,1.469-1.167c-0.183,0.598-0.277,1.224-0.277,1.855   s0.095,1.257,0.277,1.855c-0.427-0.457-0.922-0.852-1.469-1.167c-0.546-0.315-1.136-0.547-1.745-0.688   C21.671,9.381,22.261,9.15,22.807,8.834z M19.953,9.351c0.514-0.792,1.214-1.456,2.038-1.931c0.824-0.476,1.748-0.75,2.691-0.799   c-0.515,0.792-1.214,1.456-2.038,1.931C21.82,9.027,20.895,9.301,19.953,9.351z M18.905,14.402   c-0.416-0.437-0.895-0.814-1.421-1.119c-0.54-0.312-1.121-0.541-1.721-0.683c0.589-0.142,1.159-0.369,1.689-0.674   c0.558-0.322,1.061-0.727,1.494-1.196c-0.192,0.612-0.292,1.254-0.292,1.902C18.654,13.233,18.74,13.83,18.905,14.402z    M17.289,11.643c-0.816,0.471-1.73,0.744-2.663,0.797c-0.009,0-0.018-0.001-0.026-0.001c0.514-0.79,1.213-1.453,2.035-1.928   c0.824-0.476,1.749-0.75,2.691-0.799C18.812,10.504,18.112,11.167,17.289,11.643z M13.565,17.561   c-0.427-0.457-0.922-0.852-1.468-1.167c-0.569-0.328-1.184-0.564-1.819-0.704c0.643-0.139,1.265-0.377,1.84-0.709   c0.541-0.312,1.03-0.701,1.454-1.151c-0.187,0.604-0.284,1.237-0.284,1.875C13.288,16.337,13.382,16.963,13.565,17.561z    M11.955,14.698c-0.824,0.476-1.749,0.75-2.691,0.799c0.515-0.792,1.214-1.455,2.038-1.931s1.749-0.75,2.691-0.799   C13.478,13.559,12.778,14.223,11.955,14.698z M8.945,16.049c0.428,0.841,0.653,1.779,0.653,2.73s-0.225,1.889-0.653,2.73   c-0.428-0.841-0.653-1.779-0.653-2.73S8.517,16.89,8.945,16.049z M8.945,22.233c0.428,0.841,0.653,1.779,0.653,2.73   c0,0.942-0.221,1.871-0.641,2.705c-0.005,0.008-0.009,0.015-0.014,0.021c-0.427-0.84-0.651-1.776-0.651-2.727   C8.292,24.012,8.517,23.074,8.945,22.233z M8.923,28.38c0.428,0.841,0.653,1.778,0.653,2.729s-0.225,1.889-0.653,2.73   c-0.428-0.842-0.653-1.779-0.653-2.73S8.495,29.221,8.923,28.38z M9.242,34.393c0.942,0.049,1.867,0.322,2.691,0.799   c0.824,0.475,1.523,1.139,2.038,1.931c-0.942-0.05-1.867-0.323-2.691-0.8C10.456,35.848,9.756,35.184,9.242,34.393z M12.097,34.908   c-0.547-0.316-1.136-0.547-1.745-0.688c0.609-0.142,1.198-0.373,1.745-0.688c0.546-0.315,1.041-0.71,1.468-1.167   c-0.183,0.598-0.277,1.224-0.277,1.855c0,0.631,0.095,1.256,0.277,1.855C13.138,35.618,12.643,35.224,12.097,34.908z    M17.462,36.605c0.521-0.301,0.994-0.673,1.406-1.102c-0.169,0.578-0.258,1.182-0.257,1.789c0,0.623,0.091,1.241,0.27,1.832   c-0.418-0.439-0.899-0.818-1.429-1.125c-0.558-0.322-1.159-0.556-1.782-0.695C16.296,37.164,16.901,36.93,17.462,36.605z    M17.289,38.283c0.815,0.471,1.509,1.127,2.022,1.908c0.004,0.008,0.007,0.015,0.011,0.022c-0.941-0.05-1.865-0.324-2.688-0.8   c-0.824-0.475-1.523-1.139-2.038-1.93C15.54,37.533,16.465,37.807,17.289,38.283z M22.807,39.717   c0.547-0.316,1.042-0.711,1.469-1.168c-0.183,0.598-0.277,1.225-0.277,1.855c0,0.656,0.104,1.307,0.301,1.928   c-0.442-0.488-0.959-0.908-1.534-1.24c-0.541-0.313-1.122-0.541-1.724-0.684C21.657,40.268,22.254,40.035,22.807,39.717z    M22.601,41.375c0.824,0.475,1.523,1.139,2.038,1.931c-0.942-0.05-1.867-0.323-2.691-0.799c-0.823-0.476-1.523-1.14-2.037-1.931   C20.853,40.625,21.777,40.899,22.601,41.375z M27.15,41.092c-0.547,0.316-1.041,0.711-1.469,1.168   c0.183-0.6,0.277-1.225,0.277-1.855s-0.095-1.258-0.277-1.855c0.427,0.457,0.922,0.852,1.469,1.168   c0.547,0.314,1.136,0.546,1.745,0.688C28.286,40.545,27.697,40.776,27.15,41.092z M30.005,40.576   c-0.515,0.791-1.214,1.455-2.038,1.93c-0.823,0.477-1.748,0.75-2.691,0.8c0.515-0.792,1.215-1.455,2.038-1.931   C28.138,40.898,29.063,40.625,30.005,40.576z M31.052,35.524c0.416,0.437,0.895,0.813,1.422,1.118   c0.539,0.312,1.12,0.541,1.722,0.683c-0.59,0.143-1.16,0.368-1.689,0.675c-0.558,0.322-1.062,0.727-1.494,1.195   c0.192-0.612,0.292-1.254,0.292-1.902C31.304,36.692,31.218,36.097,31.052,35.524z M32.669,38.283   c0.815-0.471,1.73-0.744,2.664-0.798c0.008,0.001,0.017,0.001,0.025,0.001c-0.515,0.791-1.214,1.453-2.036,1.928   c-0.823,0.477-1.748,0.75-2.691,0.8C31.146,39.422,31.845,38.758,32.669,38.283z M36.393,32.365   c0.427,0.457,0.922,0.852,1.469,1.167c0.568,0.329,1.183,0.565,1.818,0.704c-0.643,0.139-1.265,0.377-1.84,0.709   c-0.541,0.312-1.03,0.701-1.454,1.15c0.187-0.604,0.284-1.236,0.284-1.875C36.67,33.589,36.575,32.963,36.393,32.365z    M38.003,35.229c0.823-0.477,1.748-0.75,2.691-0.8c-0.515,0.792-1.214,1.456-2.038,1.931c-0.823,0.477-1.748,0.75-2.691,0.8   C36.479,36.367,37.179,35.703,38.003,35.229z M41.188,28.055c0.526-0.94,0.805-2.008,0.805-3.092c0-1.069-0.271-2.123-0.783-3.054   c0.525-0.941,0.804-2.009,0.805-3.093c0-0.378-0.035-0.754-0.102-1.124c0.973,2.242,1.513,4.712,1.513,7.308   c0,2.639-0.559,5.15-1.563,7.422c0.085-0.418,0.13-0.846,0.13-1.275C41.992,30.063,41.715,28.996,41.188,28.055z M39.727,13.938   c-0.276-0.23-0.572-0.437-0.886-0.618c-0.938-0.542-2.002-0.835-3.079-0.85c-0.552-0.925-1.337-1.7-2.276-2.242   c-0.926-0.535-1.974-0.827-3.036-0.849c-0.552-0.926-1.337-1.701-2.276-2.243c-0.281-0.163-0.575-0.303-0.876-0.42   C32.362,7.35,36.796,10.047,39.727,13.938z M22.703,6.717c-0.301,0.117-0.595,0.257-0.876,0.42   c-0.939,0.542-1.724,1.316-2.276,2.242c-1.078,0.015-2.141,0.308-3.08,0.85c-0.926,0.535-1.703,1.295-2.253,2.205   c-1.078,0.015-2.142,0.308-3.081,0.85c-0.265,0.153-0.517,0.325-0.755,0.512C13.313,9.981,17.7,7.342,22.703,6.717z M8.042,17.795   c-0.051,0.325-0.078,0.654-0.078,0.984c0,1.084,0.278,2.151,0.804,3.092c-0.526,0.941-0.804,2.008-0.804,3.092   c0,1.07,0.271,2.123,0.783,3.055c-0.526,0.94-0.804,2.008-0.804,3.092c0,0.365,0.032,0.729,0.094,1.084   C7.096,29.982,6.574,27.551,6.574,25C6.574,22.445,7.098,20.009,8.042,17.795z M10.197,35.959c0.286,0.242,0.593,0.459,0.919,0.646   c0.939,0.543,2.002,0.835,3.08,0.85c0.552,0.926,1.337,1.701,2.276,2.242c0.926,0.535,1.974,0.827,3.036,0.85   c0.552,0.926,1.337,1.701,2.276,2.242c0.368,0.213,0.755,0.387,1.153,0.521C17.73,42.727,13.171,39.966,10.197,35.959z    M26.93,43.325c0.416-0.136,0.818-0.315,1.201-0.536c0.938-0.541,1.724-1.316,2.275-2.242c1.077-0.015,2.141-0.307,3.079-0.85   c0.927-0.534,1.703-1.295,2.254-2.205c1.077-0.015,2.142-0.307,3.08-0.85c0.364-0.209,0.704-0.455,1.018-0.729   C36.839,39.979,32.213,42.773,26.93,43.325z"/><path d="M39.143,10.858C35.364,7.081,30.342,5,25,5c-5.342,0-10.365,2.081-14.142,5.858S5,19.658,5,25   c0,5.342,2.081,10.365,5.858,14.143S19.658,45,25,45c5.342,0,10.364-2.08,14.143-5.857C42.92,35.365,45,30.342,45,25   C45,19.658,42.92,14.635,39.143,10.858z M25,44.674C14.152,44.674,5.327,35.848,5.327,25S14.152,5.327,25,5.327   S44.673,14.152,44.673,25S35.848,44.674,25,44.674z"/></g><text x="0" y="65" fill="#FFFFFF" font-size="5px" font-weight="bold" font-family="'Helvetica Neue', Helvetica, Arial-Unicode, Arial, Sans-serif">Created by Kick</text><text x="0" y="70" fill="#FFFFFF" font-size="5px" font-weight="bold" font-family="'Helvetica Neue', Helvetica, Arial-Unicode, Arial, Sans-serif">from the Noun Project</text></svg>